<!--?xml version="1.0" encoding="utf-8"?-->
<!-- Generator: Adobe Illustrator 18.0.0, SVG Export Plug-In . SVG Version: 6.00 Build 0)  -->

<svg version="1.1" id="_x32_" xmlns="http://www.w3.org/2000/svg" xmlns:xlink="http://www.w3.org/1999/xlink" x="0px" y="0px" viewBox="0 0 512 512" style="width: 128px; height: 128px; opacity: 1;" xml:space="preserve">
<style type="text/css">
	.st0{fill:#4B4B4B;}
</style>
<g>
	<path class="st0" d="M316.383,174.27c0-34.336-27.094-62.27-60.392-62.27c-33.301,0-60.393,27.934-60.393,62.27v15.568h120.785
		V174.27z" style="fill: rgb(75, 75, 75);"></path>
	<path class="st0" d="M352.627,195.641c-8.474,0-15.373,4.381-15.373,9.766v31.135c0,46.197-36.449,83.781-81.254,83.781
		c-44.805,0-81.254-37.584-81.254-83.781v-31.135c0-5.385-6.898-9.766-15.373-9.766c-8.477,0-15.373,4.381-15.373,9.766v31.135
		c0,58.39,42.258,106.769,96.892,114.402v20.397c-11.267,3.873-19.074,11.898-19.074,21.144V400h19.074h30.196h19.074v-7.516
		c0-9.246-7.808-17.272-19.074-21.144v-20.393C325.73,343.32,368,294.938,368,236.541v-31.135
		C368,200.022,361.104,195.641,352.627,195.641z" style="fill: rgb(75, 75, 75);"></path>
	<path class="st0" d="M255.99,298.81c33.299,0,60.392-27.934,60.392-62.269v-15.568H195.598v15.568
		C195.598,270.877,222.69,298.81,255.99,298.81z" style="fill: rgb(75, 75, 75);"></path>
	<path class="st0" d="M256,0C114.615,0,0,114.615,0,256s114.615,256,256,256s256-114.615,256-256S397.385,0,256,0z M256,448
		c-105.869,0-192-86.131-192-192S150.131,64,256,64s192,86.131,192,192S361.869,448,256,448z" style="fill: rgb(75, 75, 75);"></path>
</g>
</svg>
