<!--?xml version="1.0" encoding="utf-8"?-->
<!-- Generator: Adobe Illustrator 18.0.0, SVG Export Plug-In . SVG Version: 6.00 Build 0)  -->

<svg version="1.1" id="_x32_" xmlns="http://www.w3.org/2000/svg" xmlns:xlink="http://www.w3.org/1999/xlink" x="0px" y="0px" viewBox="0 0 512 512" style="width: 128px; height: 128px; opacity: 1;" xml:space="preserve">
<style type="text/css">
	.st0{fill:#4B4B4B;}
</style>
<g>
	<path class="st0" d="M256,0C114.615,0,0,114.615,0,256s114.615,256,256,256s256-114.615,256-256S397.385,0,256,0z M316.383,189.838
		H196.35l-0.752-0.002V174.27c0-34.338,27.092-62.27,60.393-62.27c33.299,0,60.392,27.932,60.392,62.27V189.838z M255.99,298.81
		c-33.301,0-60.393-27.934-60.393-62.269v-15.568h120.785v15.568C316.383,270.877,289.289,298.81,255.99,298.81z M221.818,400
		v-7.516c0-9.246,7.807-17.272,19.074-21.144v-20.397C186.258,343.31,144,294.932,144,236.541v-31.137
		c0-5.383,6.896-9.766,15.373-9.766c8.474,0,15.373,4.383,15.373,9.766v31.137c0,46.197,36.449,83.781,81.254,83.781
		c44.805,0,81.254-37.584,81.254-83.781v-31.137c0-5.383,6.898-9.766,15.373-9.766c8.477,0,15.373,4.383,15.373,9.766v31.137
		c0,58.398-42.27,106.779-96.912,114.406v20.393c11.266,3.873,19.074,11.898,19.074,21.144V400h-19.074h-30.196H221.818z" style="fill: rgb(75, 75, 75);"></path>
</g>
</svg>
